<svg
   width="88"
   height="88"
   viewBox="0 0 88 88"
   fill="none"
   version="1.1"
   id="svg12"
   xmlns="http://www.w3.org/2000/svg">
  <path d="m 18.743026,11.524571 v 7.216701 h 7.217955 7.215511 0.0011 7.216489 v -7.216701 h -7.216489 -0.0011 -7.215511 -0.0013 z m 0,7.216701 h -7.216489 v 7.216698 7.21646 h 7.216489 v -7.21646 z m 0,14.433158 v 7.21671 7.216459 h 7.216651 V 40.39114 33.17443 Z m 7.216651,14.43317 v 7.21796 7.216699 h 7.216815 v 7.216711 h 7.216325 v 7.21646 h 7.216815 v -7.21646 h 7.217953 v -7.216711 h 7.216488 V 54.8243 47.607599 h -7.21779 v 7.21796 7.21546 h -7.215511 v -7.21546 0 -7.21796 h -0.0015 v -7.21646 -7.21671 -7.21646 -7.216698 h 0.0015 7.21649 7.216811 7.21258 v 7.216698 7.21646 h 7.21681 v -7.21646 -7.216698 h -7.21306 V 11.52457 h -7.21633 -0.0013 -7.21551 -0.0013 -7.215347 -0.0015 -7.216489 v 7.216701 7.216698 7.21646 7.21671 7.21646 7.2167 0 7.21672 h -7.216183 v -7.21672 -7.2167 z M 69.260723,33.17443 h -7.21665 v 7.21671 7.216459 h 7.21665 V 40.39114 Z" fill="#2188ff"/>
</svg>
